<?xml version="1.0" encoding="UTF-8"?>
<!DOCTYPE svg  PUBLIC '-//W3C//DTD SVG 1.1//EN'  'http://www.w3.org/Graphics/SVG/1.1/DTD/svg11.dtd'>
<svg clip-rule="evenodd" fill-rule="evenodd" stroke-linecap="round" stroke-linejoin="round" stroke-miterlimit="1.5" version="1.1" viewBox="0 0 229 154" xml:space="preserve" xmlns="http://www.w3.org/2000/svg"><rect width="229" height="154" fill="none"/><path d="m219.57 25.616c-0-7.376-5.989-13.364-13.365-13.364h-180.41c-7.376-0-13.365 5.988-13.365 13.364v94.768c0 7.376 5.989 13.364 13.365 13.364h180.41c7.376 0 13.365-5.988 13.365-13.364v-94.768z" fill="none" stroke="#00ff85" stroke-width="5.16px"/><path d="m210 32.396c0-5.43-4.409-9.838-9.839-9.838h-168.32c-5.43-0-9.839 4.408-9.839 9.838v69.765c0 5.43 4.409 9.839 9.839 9.839h168.32c5.43-0 9.839-4.409 9.839-9.839v-69.765z" fill="none" stroke="#00ff85" stroke-width="5.16px"/><path d="m202 121c0-1.104-0.896-2-2-2h-30c-1.104 0-2 0.896-2 2v4c0 1.104 0.896 2 2 2h30c1.104 0 2-0.896 2-2v-4z" fill="none" stroke="#00ff85" stroke-width="5.16px"/><path d="m160.03 121c-0-1.104-0.896-2-2-2h-30c-1.104 0-2 0.896-2 2v4c-0 1.104 0.896 2 2 2h30c1.104 0 2-0.896 2-2v-4z" fill="none" stroke="#00ff85" stroke-width="5.16px"/><path d="m41 147 32.169-51.471 4.831-4.529-2 6c-9.158 15.194-21.061 31.69-32 50h-3z" fill="none" stroke="#00ff85" stroke-width="5.16px"/></svg>
