<?xml version="1.0" encoding="UTF-8" standalone="no"?><!DOCTYPE svg PUBLIC "-//W3C//DTD SVG 1.1//EN" "http://www.w3.org/Graphics/SVG/1.1/DTD/svg11.dtd"><svg width="100%" height="100%" viewBox="0 0 229 154" version="1.1" xmlns="http://www.w3.org/2000/svg" xmlns:xlink="http://www.w3.org/1999/xlink" xml:space="preserve" xmlns:serif="http://www.serif.com/" style="fill-rule:evenodd;clip-rule:evenodd;stroke-linecap:round;stroke-linejoin:round;stroke-miterlimit:1.5;"><rect id="Artboard1" x="0" y="0" width="229" height="154" style="fill:none;"/><path d="M219.571,25.616c-0,-7.376 -5.989,-13.364 -13.365,-13.364l-180.412,-0c-7.376,-0 -13.365,5.988 -13.365,13.364l0,94.768c0,7.376 5.989,13.364 13.365,13.364l180.412,0c7.376,0 13.365,-5.988 13.365,-13.364l-0,-94.768Z" style="fill:none;stroke:#00ff85;stroke-width:5.16px;"/><path d="M210,32.396c0,-5.43 -4.409,-9.838 -9.839,-9.838l-168.322,-0c-5.43,-0 -9.839,4.408 -9.839,9.838l0,69.765c0,5.43 4.409,9.839 9.839,9.839l168.322,-0c5.43,-0 9.839,-4.409 9.839,-9.839l0,-69.765Z" style="fill:none;stroke:#00ff85;stroke-width:5.16px;"/><path d="M202,121c0,-1.104 -0.896,-2 -2,-2l-30,0c-1.104,0 -2,0.896 -2,2l0,4c0,1.104 0.896,2 2,2l30,0c1.104,0 2,-0.896 2,-2l0,-4Z" style="fill:none;stroke:#00ff85;stroke-width:5.16px;"/><path d="M160.033,121c-0,-1.104 -0.896,-2 -2,-2l-30,0c-1.104,0 -2,0.896 -2,2l-0,4c-0,1.104 0.896,2 2,2l30,0c1.104,0 2,-0.896 2,-2l-0,-4Z" style="fill:none;stroke:#00ff85;stroke-width:5.16px;"/><path d="M41,147l32.169,-51.471l4.831,-4.529l-2,6c-9.158,15.194 -21.061,31.69 -32,50l-3,0Z" style="fill:none;stroke:#00ff85;stroke-width:5.16px;"/></svg>