<?xml version="1.0" encoding="UTF-8" standalone="no"?><!DOCTYPE svg PUBLIC "-//W3C//DTD SVG 1.1//EN" "http://www.w3.org/Graphics/SVG/1.1/DTD/svg11.dtd"><svg width="100%" height="100%" viewBox="0 0 2284 2200" version="1.1" xmlns="http://www.w3.org/2000/svg" xmlns:xlink="http://www.w3.org/1999/xlink" xml:space="preserve" xmlns:serif="http://www.serif.com/" style="fill-rule:evenodd;clip-rule:evenodd;stroke-linecap:round;stroke-linejoin:round;stroke-miterlimit:1.5;"><rect id="Artboard2" x="-0" y="0" width="2283.33" height="2200" style="fill:none;"/><clipPath id="_clip1"><rect x="-0" y="0" width="2283.33" height="2200"/></clipPath><g clip-path="url(#_clip1)"><path d="M-162.5,279.167c0,-110.383 89.617,-200 200,-200l1.368,-0c110.383,-0 200,89.617 200,200c0,110.383 -89.617,200 -200,200l-1.368,-0c-110.383,-0 -200,-89.617 -200,-200Z" style="fill:none;stroke:#00ff85;stroke-width:51.77px;"/><path d="M376.544,279.167c-0,-110.383 89.617,-200 200,-200l1.368,-0c110.383,-0 200,89.617 200,200c0,110.383 -89.617,200 -200,200l-1.368,-0c-110.383,-0 -200,-89.617 -200,-200Z" style="fill:none;stroke:#00ff85;stroke-width:51.77px;"/><path d="M376.544,1274.97c-0,-110.383 89.617,-200 200,-200l1.368,0c110.383,0 200,89.617 200,200c0,110.383 -89.617,200 -200,200l-1.368,0c-110.383,0 -200,-89.617 -200,-200Z" style="fill:none;stroke:#00ff85;stroke-width:51.77px;"/><path d="M915.587,279.167c0,-110.383 89.617,-200 200,-200l1.369,-0c110.383,-0 200,89.617 200,200c-0,110.383 -89.617,200 -200,200l-1.369,-0c-110.383,-0 -200,-89.617 -200,-200Z" style="fill:none;stroke:#00ff85;stroke-width:51.77px;"/><path d="M915.587,1274.97c0,-110.383 89.617,-200 200,-200l1.369,0c110.383,0 200,89.617 200,200c-0,110.383 -89.617,200 -200,200l-1.369,0c-110.383,0 -200,-89.617 -200,-200Z" style="fill:none;stroke:#00ff85;stroke-width:51.77px;"/><path d="M1476.48,279.167c0,-110.383 89.617,-200 200,-200l1.369,-0c110.383,-0 200,89.617 200,200c-0,110.383 -89.617,200 -200,200l-1.369,-0c-110.383,-0 -200,-89.617 -200,-200Z" style="fill:none;stroke:#00ff85;stroke-width:51.77px;"/><path d="M1454.63,1274.97c-0,-110.383 89.617,-200 200,-200l1.368,0c110.383,0 200,89.617 200,200c0,110.383 -89.617,200 -200,200l-1.368,0c-110.383,0 -200,-89.617 -200,-200Z" style="fill:none;stroke:#00ff85;stroke-width:51.77px;"/><path d="M1200,796.358c0,-110.383 89.617,-200 200,-200l1.368,-0c110.383,-0 200,89.617 200,200c0,110.383 -89.617,200 -200,200l-1.368,-0c-110.383,-0 -200,-89.617 -200,-200Z" style="fill:none;stroke:#00ff85;stroke-width:51.77px;"/><path d="M1751.98,796.358c-0,-110.383 89.617,-200 200,-200l1.368,-0c110.383,-0 200,89.617 200,200c0,110.383 -89.617,200 -200,200l-1.368,-0c-110.383,-0 -200,-89.617 -200,-200Z" style="fill:none;stroke:#00ff85;stroke-width:51.77px;"/><path d="M648.019,796.358c0,-110.383 89.617,-200 200,-200l1.369,-0c110.383,-0 200,89.617 200,200c-0,110.383 -89.617,200 -200,200l-1.369,-0c-110.383,-0 -200,-89.617 -200,-200Z" style="fill:none;stroke:#00ff85;stroke-width:51.77px;"/><path d="M650,1750c0,-110.383 89.617,-200 200,-200l1.368,0c110.383,0 200,89.617 200,200c0,110.383 -89.617,200 -200,200l-1.368,0c-110.383,0 -200,-89.617 -200,-200Z" style="fill:none;stroke:#00ff85;stroke-width:51.77px;"/><path d="M107.973,796.358c-0,-110.383 89.617,-200 200,-200l1.368,-0c110.383,-0 200,89.617 200,200c0,110.383 -89.617,200 -200,200l-1.368,-0c-110.383,-0 -200,-89.617 -200,-200Z" style="fill:none;stroke:#00ff85;stroke-width:51.77px;"/></g></svg>