<?xml version="1.0" encoding="UTF-8" standalone="no"?><!DOCTYPE svg PUBLIC "-//W3C//DTD SVG 1.1//EN" "http://www.w3.org/Graphics/SVG/1.1/DTD/svg11.dtd"><svg width="100%" height="100%" viewBox="0 0 3325 3300" version="1.1" xmlns="http://www.w3.org/2000/svg" xmlns:xlink="http://www.w3.org/1999/xlink" xml:space="preserve" xmlns:serif="http://www.serif.com/" style="fill-rule:evenodd;clip-rule:evenodd;stroke-linecap:round;stroke-linejoin:round;stroke-miterlimit:1.5;"><rect id="Artboard3" x="0" y="-0" width="3325" height="3300" style="fill:none;"/><clipPath id="_clip1"><rect x="0" y="-0" width="3325" height="3300"/></clipPath><g clip-path="url(#_clip1)"><path d="M1208.14,1588.93c-75.783,0 -137.31,61.527 -137.31,137.31l0,626.477c0,75.783 61.527,137.31 137.31,137.31c75.784,-0 137.31,-61.527 137.31,-137.31l0,-626.477c0,-75.783 -61.526,-137.31 -137.31,-137.31Z" style="fill:none;stroke:#00ff85;stroke-width:51.77px;"/><path d="M2108.14,844.491c-75.783,-0 -137.31,61.526 -137.31,137.31l0,626.476c0,75.784 61.527,137.31 137.31,137.31c75.784,0 137.31,-61.526 137.31,-137.31l0,-626.476c0,-75.784 -61.526,-137.31 -137.31,-137.31Z" style="fill:none;stroke:#00ff85;stroke-width:51.77px;"/><path d="M2562.31,1918.59c-75.783,-0 -137.31,61.526 -137.31,137.31l-0,626.476c-0,75.784 61.527,137.31 137.31,137.31c75.783,0 137.31,-61.526 137.31,-137.31l-0,-626.476c-0,-75.784 -61.527,-137.31 -137.31,-137.31Z" style="fill:none;stroke:#00ff85;stroke-width:51.77px;"/><path d="M1208.14,552.707c-75.783,-0 -137.31,61.526 -137.31,137.31l0,626.477c0,75.783 61.527,137.31 137.31,137.31c75.784,-0 137.31,-61.527 137.31,-137.31l0,-626.477c0,-75.784 -61.526,-137.31 -137.31,-137.31Z" style="fill:none;stroke:#00ff85;stroke-width:51.77px;"/><path d="M337.31,1277.8c-75.783,0 -137.31,61.527 -137.31,137.31l-0,626.477c-0,75.783 61.527,137.31 137.31,137.31c75.783,-0 137.31,-61.527 137.31,-137.31l-0,-626.477c-0,-75.783 -61.527,-137.31 -137.31,-137.31Z" style="fill:none;stroke:#00ff85;stroke-width:51.77px;"/><path d="M337.31,253.58c-75.783,-0 -137.31,61.526 -137.31,137.31l-0,626.477c-0,75.783 61.527,137.31 137.31,137.31c75.783,-0 137.31,-61.527 137.31,-137.31l-0,-626.477c-0,-75.784 -61.527,-137.31 -137.31,-137.31Z" style="fill:none;stroke:#00ff85;stroke-width:51.77px;"/><path d="M1653.98,1224.57c-75.784,0 -137.31,61.527 -137.31,137.31l-0,626.477c-0,75.783 61.526,137.31 137.31,137.31c75.783,-0 137.31,-61.527 137.31,-137.31l-0,-626.477c-0,-75.783 -61.527,-137.31 -137.31,-137.31Z" style="fill:none;stroke:#00ff85;stroke-width:51.77px;"/><path d="M1653.98,2280.81c-75.784,-0 -137.31,61.526 -137.31,137.31l-0,626.476c-0,75.784 61.526,137.31 137.31,137.31c75.783,0 137.31,-61.526 137.31,-137.31l-0,-626.476c-0,-75.784 -61.527,-137.31 -137.31,-137.31Z" style="fill:none;stroke:#00ff85;stroke-width:51.77px;"/><path d="M1653.98,196.349c-75.784,0 -137.31,61.527 -137.31,137.31l-0,626.477c-0,75.783 61.526,137.31 137.31,137.31c75.783,-0 137.31,-61.527 137.31,-137.31l-0,-626.477c-0,-75.783 -61.527,-137.31 -137.31,-137.31Z" style="fill:none;stroke:#00ff85;stroke-width:51.77px;"/><path d="M2563.59,478.411c-75.783,-0 -137.31,61.526 -137.31,137.31l0,626.476c0,75.784 61.527,137.31 137.31,137.31c75.783,0 137.31,-61.526 137.31,-137.31l0,-626.476c0,-75.784 -61.527,-137.31 -137.31,-137.31Z" style="fill:none;stroke:#00ff85;stroke-width:51.77px;"/><path d="M2991.58,87.926c-75.783,-0 -137.31,61.526 -137.31,137.31l0,626.476c0,75.784 61.527,137.31 137.31,137.31c75.783,0 137.31,-61.526 137.31,-137.31l-0,-626.476c-0,-75.784 -61.527,-137.31 -137.31,-137.31Z" style="fill:none;stroke:#00ff85;stroke-width:51.77px;"/><path d="M745.057,-112.5c-75.784,-0 -137.31,61.527 -137.31,137.31l-0,626.477c-0,75.783 61.526,137.31 137.31,137.31c75.783,-0 137.31,-61.527 137.31,-137.31l-0,-626.477c-0,-75.783 -61.527,-137.31 -137.31,-137.31Z" style="fill:none;stroke:#00ff85;stroke-width:51.77px;"/></g></svg>