<?xml version="1.0" encoding="UTF-8"?>
<!DOCTYPE svg  PUBLIC '-//W3C//DTD SVG 1.1//EN'  'http://www.w3.org/Graphics/SVG/1.1/DTD/svg11.dtd'>
<svg clip-rule="evenodd" fill-rule="evenodd" stroke-linecap="round" stroke-linejoin="round" stroke-miterlimit="1.5" version="1.1" viewBox="0 0 3325 3300" xml:space="preserve" xmlns="http://www.w3.org/2000/svg"><g fill="none" opacity=".2"><rect width="3325" height="3300"/><clipPath id="a"><rect width="3325" height="3300"/></clipPath><g clip-path="url(#a)" stroke="#00ff85" stroke-width="51.77px"><path d="m1208.1 1588.9c-75.783 0-137.31 61.527-137.31 137.31v626.48c0 75.783 61.527 137.31 137.31 137.31 75.784-0 137.31-61.527 137.31-137.31v-626.48c0-75.783-61.526-137.31-137.31-137.31z"/><path d="m2108.1 844.49c-75.783-0-137.31 61.526-137.31 137.31v626.48c0 75.784 61.527 137.31 137.31 137.31 75.784 0 137.31-61.526 137.31-137.31v-626.48c0-75.784-61.526-137.31-137.31-137.31z"/><path d="m2562.3 1918.6c-75.783-0-137.31 61.526-137.31 137.31v626.48c-0 75.784 61.527 137.31 137.31 137.31s137.31-61.526 137.31-137.31v-626.48c-0-75.784-61.527-137.31-137.31-137.31z"/><path d="m1208.1 552.71c-75.783-0-137.31 61.526-137.31 137.31v626.48c0 75.783 61.527 137.31 137.31 137.31 75.784-0 137.31-61.527 137.31-137.31v-626.48c0-75.784-61.526-137.31-137.31-137.31z"/><path d="m337.31 1277.8c-75.783 0-137.31 61.527-137.31 137.31v626.48c-0 75.783 61.527 137.31 137.31 137.31s137.31-61.527 137.31-137.31v-626.48c-0-75.783-61.527-137.31-137.31-137.31z"/><path d="m337.31 253.58c-75.783-0-137.31 61.526-137.31 137.31v626.48c-0 75.783 61.527 137.31 137.31 137.31s137.31-61.527 137.31-137.31v-626.48c-0-75.784-61.527-137.31-137.31-137.31z"/><path d="m1654 1224.6c-75.784 0-137.31 61.527-137.31 137.31v626.48c-0 75.783 61.526 137.31 137.31 137.31 75.783-0 137.31-61.527 137.31-137.31v-626.48c-0-75.783-61.527-137.31-137.31-137.31z"/><path d="m1654 2280.8c-75.784-0-137.31 61.526-137.31 137.31v626.48c-0 75.784 61.526 137.31 137.31 137.31 75.783 0 137.31-61.526 137.31-137.31v-626.48c-0-75.784-61.527-137.31-137.31-137.31z"/><path d="m1654 196.35c-75.784 0-137.31 61.527-137.31 137.31v626.48c-0 75.783 61.526 137.31 137.31 137.31 75.783-0 137.31-61.527 137.31-137.31v-626.48c-0-75.783-61.527-137.31-137.31-137.31z"/><path d="m2563.6 478.41c-75.783-0-137.31 61.526-137.31 137.31v626.48c0 75.784 61.527 137.31 137.31 137.31s137.31-61.526 137.31-137.31v-626.48c0-75.784-61.527-137.31-137.31-137.31z"/><path d="m2991.6 87.926c-75.783-0-137.31 61.526-137.31 137.31v626.48c0 75.784 61.527 137.31 137.31 137.31s137.31-61.526 137.31-137.31v-626.48c-0-75.784-61.527-137.31-137.31-137.31z"/><path d="m745.06-112.5c-75.784-0-137.31 61.527-137.31 137.31v626.48c-0 75.783 61.526 137.31 137.31 137.31 75.783-0 137.31-61.527 137.31-137.31v-626.48c-0-75.783-61.527-137.31-137.31-137.31z"/></g></g></svg>
