<?xml version="1.0" encoding="UTF-8"?>
<!DOCTYPE svg  PUBLIC '-//W3C//DTD SVG 1.1//EN'  'http://www.w3.org/Graphics/SVG/1.1/DTD/svg11.dtd'>
<svg clip-rule="evenodd" fill-rule="evenodd" stroke-linecap="round" stroke-linejoin="round" stroke-miterlimit="1.5" version="1.1" viewBox="0 0 2284 2200" xml:space="preserve" xmlns="http://www.w3.org/2000/svg"><g fill="none" opacity=".2"><rect width="2283.3" height="2200"/><clipPath id="a"><rect width="2283.3" height="2200"/></clipPath><g clip-path="url(#a)" stroke="#00ff85" stroke-width="51.77px"><path d="m-162.5 279.17c0-110.38 89.617-200 200-200h1.368c110.38-0 200 89.617 200 200s-89.617 200-200 200h-1.368c-110.38-0-200-89.617-200-200z"/><path d="m376.54 279.17c-0-110.38 89.617-200 200-200h1.368c110.38-0 200 89.617 200 200s-89.617 200-200 200h-1.368c-110.38-0-200-89.617-200-200z"/><path d="m376.54 1275c-0-110.38 89.617-200 200-200h1.368c110.38 0 200 89.617 200 200s-89.617 200-200 200h-1.368c-110.38 0-200-89.617-200-200z"/><path d="m915.59 279.17c0-110.38 89.617-200 200-200h1.369c110.38-0 200 89.617 200 200s-89.617 200-200 200h-1.369c-110.38-0-200-89.617-200-200z"/><path d="m915.59 1275c0-110.38 89.617-200 200-200h1.369c110.38 0 200 89.617 200 200s-89.617 200-200 200h-1.369c-110.38 0-200-89.617-200-200z"/><path d="m1476.5 279.17c0-110.38 89.617-200 200-200h1.369c110.38-0 200 89.617 200 200s-89.617 200-200 200h-1.369c-110.38-0-200-89.617-200-200z"/><path d="m1454.6 1275c-0-110.38 89.617-200 200-200h1.368c110.38 0 200 89.617 200 200s-89.617 200-200 200h-1.368c-110.38 0-200-89.617-200-200z"/><path d="m1200 796.36c0-110.38 89.617-200 200-200h1.368c110.38-0 200 89.617 200 200s-89.617 200-200 200h-1.368c-110.38-0-200-89.617-200-200z"/><path d="m1752 796.36c-0-110.38 89.617-200 200-200h1.368c110.38-0 200 89.617 200 200s-89.617 200-200 200h-1.368c-110.38-0-200-89.617-200-200z"/><path d="m648.02 796.36c0-110.38 89.617-200 200-200h1.369c110.38-0 200 89.617 200 200s-89.617 200-200 200h-1.369c-110.38-0-200-89.617-200-200z"/><path d="m650 1750c0-110.38 89.617-200 200-200h1.368c110.38 0 200 89.617 200 200s-89.617 200-200 200h-1.368c-110.38 0-200-89.617-200-200z"/><path d="m107.97 796.36c-0-110.38 89.617-200 200-200h1.368c110.38-0 200 89.617 200 200s-89.617 200-200 200h-1.368c-110.38-0-200-89.617-200-200z"/></g></g></svg>
